<?xml version="1.0" encoding="UTF-8"?>
<svg width="14px" height="14px" viewBox="0 0 14 14" version="1.1" xmlns="http://www.w3.org/2000/svg" xmlns:xlink="http://www.w3.org/1999/xlink">
    <title>icon/feedback/close</title>
    <g id="页面-1" stroke="none" stroke-width="1" fill="none" fill-rule="evenodd" fill-opacity="0.45">
        <g id="药店结算" transform="translate(-443, -83)" fill="#000000" fill-rule="nonzero">
            <g id="tab/card/default/3.close" transform="translate(363, 72)">
                <g id="icon/feedback/close" transform="translate(82.6659, 13.543)">
                    <g id="close" transform="translate(-0.3326, -0.2096)">
                        <path d="M5.37486979,4.66666667 L8.96373698,0.388736979 C9.02389323,0.317643229 8.97330729,0.209635417 8.88033854,0.209635417 L7.78932292,0.209635417 C7.7250651,0.209635417 7.66354167,0.238346354 7.62115885,0.287565104 L4.66119792,3.81627604 L1.70123698,0.287565104 C1.66022135,0.238346354 1.59869792,0.209635417 1.53307292,0.209635417 L0.442057292,0.209635417 C0.349088542,0.209635417 0.298502604,0.317643229 0.358658854,0.388736979 L3.94752604,4.66666667 L0.358658854,8.94459635 C0.298502604,9.0156901 0.349088542,9.12369792 0.442057292,9.12369792 L1.53307292,9.12369792 C1.59733073,9.12369792 1.65885417,9.09498698 1.70123698,9.04576823 L4.66119792,5.51705729 L7.62115885,9.04576823 C7.66217448,9.09498698 7.72369792,9.12369792 7.78932292,9.12369792 L8.88033854,9.12369792 C8.97330729,9.12369792 9.02389323,9.0156901 8.96373698,8.94459635 L5.37486979,4.66666667 Z" id="路径"></path>
                    </g>
                </g>
            </g>
        </g>
    </g>
</svg>