<?xml version="1.0" encoding="UTF-8"?>
<svg width="12px" height="12px" viewBox="0 0 12 12" version="1.1" xmlns="http://www.w3.org/2000/svg" xmlns:xlink="http://www.w3.org/1999/xlink">
    <title>向下</title>
    <g id="页面-1" stroke="none" stroke-width="1" fill="none" fill-rule="evenodd">
        <g id="药店结算" transform="translate(-1888, -27)" fill="#FFFFFF" fill-rule="nonzero">
            <g id="NAV" transform="translate(256, 0)">
                <g id="DIV" transform="translate(1256, 12)">
                    <g id="编组" transform="translate(276, 3)">
                        <g id="向下" transform="translate(100, 12)">
                            <rect id="矩形" opacity="0" x="0" y="0" width="12" height="12"></rect>
                            <path d="M10.296,2.94 C10.528,2.94 10.716,2.984 10.86,3.072 C11.004,3.16 11.1,3.276 11.148,3.42 C11.196,3.564 11.196,3.726 11.148,3.906 C11.1,4.086 10.996,4.264 10.836,4.44 C10.188,5.16 9.564,5.864 8.964,6.552 C8.364,7.24 7.784,7.884 7.224,8.484 C7.072,8.644 6.894,8.768 6.69,8.856 C6.486,8.944 6.276,8.99 6.06,8.994 C5.844,8.998 5.636,8.964 5.436,8.892 C5.236,8.82 5.068,8.708 4.932,8.556 C4.62,8.212 4.296,7.86 3.96,7.5 L2.928,6.42 C2.592,6.06 2.258,5.706 1.926,5.358 C1.594,5.01 1.284,4.672 0.996,4.344 C0.86,4.192 0.772,4.034 0.732,3.87 C0.692,3.706 0.696,3.556 0.744,3.42 C0.792,3.284 0.884,3.172 1.02,3.084 C1.156,2.996 1.332,2.952 1.548,2.952 C1.828,2.952 2.214,2.95 2.706,2.946 C3.198,2.942 3.736,2.94 4.32,2.94 L10.296,2.94 Z" id="路径"></path>
                        </g>
                    </g>
                </g>
            </g>
        </g>
    </g>
</svg>