<?xml version="1.0" standalone="no"?><!DOCTYPE svg PUBLIC "-//W3C//DTD SVG 1.1//EN" "http://www.w3.org/Graphics/SVG/1.1/DTD/svg11.dtd"><svg t="1770189171513" class="icon" viewBox="0 0 1024 1024" version="1.1" xmlns="http://www.w3.org/2000/svg" p-id="25712" xmlns:xlink="http://www.w3.org/1999/xlink" width="200" height="200"><path d="M590.506667 119.68l95.232 202.88h267.093333a35.242667 35.242667 0 0 1 2.688 70.4l-274.261333 0.298667a59.648 59.648 0 0 1-53.802667-34.304L543.146667 179.498667a8.533333 8.533333 0 0 0-15.274667-0.384L423.509333 375.210667l-7.936 14.890666-16.682666 2.730667-237.013334 38.826667 155.306667 171.733333a59.733333 59.733333 0 0 1 15.402667 41.941333l-0.554667 6.570667-31.701333 220.757333 191.914666-96.384a8.533333 8.533333 0 0 1 9.984 1.749334l44.074667 46.165333c-4.736 3.413333-9.173333 5.205333-14.848 8.234667l-214.954667 108.544a59.733333 59.733333 0 0 1-86.058666-61.781334l33.408-233.002666-163.072-180.309334a59.733333 59.733333 0 0 1-13.141334-23.68l-1.493333-6.698666a59.733333 59.733333 0 0 1 49.28-68.608l235.733333-38.698667 112.512-211.2a59.733333 59.733333 0 0 1 21.674667-22.954667l5.674667-2.986666a59.733333 59.733333 0 0 1 79.445333 28.629333z m367.744 586.922667a29.866667 29.866667 0 0 1 0 59.733333h-281.6a29.866667 29.866667 0 1 1 0-59.733333h281.6z m0-170.666667a29.866667 29.866667 0 0 1 0 59.733333h-281.6a29.866667 29.866667 0 1 1 0-59.733333h281.6z" p-id="25713"></path></svg>