<?xml version="1.0" encoding="UTF-8"?>
<svg width="36px" height="29px" viewBox="0 0 36 29" version="1.1" xmlns="http://www.w3.org/2000/svg" xmlns:xlink="http://www.w3.org/1999/xlink">
    <title>形状结合</title>
    <g id="页面-1" stroke="none" stroke-width="1" fill="none" fill-rule="evenodd">
        <g id="药店结算" transform="translate(-14, -17)" fill="#FFFFFF">
            <path d="M35.3772455,18.2427767 L48.8143713,29.7699812 C49.5688623,30.4183865 50,31.3549719 50,32.3636023 L50,43.7467167 C49.9640719,44.8634146 49.0299401,45.8 47.9161677,45.8 L16.0479042,45.8 C14.9341317,45.8 14,44.8994371 14,43.7467167 L14,32.3636023 C14,31.3549719 14.4311377,30.4183865 15.1856287,29.7699812 L28.6227545,18.2427767 C30.5628743,16.5857411 33.4371257,16.5857411 35.3772455,18.2427767 Z M30.8862275,34.2727955 L26.6826347,34.2727955 L26.6826347,36.7223265 L26.6878732,36.8713964 C26.7642711,37.9547186 27.6667534,38.8116323 28.7664671,38.8116323 L28.9196319,38.80638 C30.0315588,38.7297815 30.8862275,37.8249286 30.8862275,36.7223265 L30.8862275,34.2727955 Z M37.2814371,34.2727955 L33.0778443,34.2727955 L33.0778443,36.7223265 L33.0830828,36.8713964 C33.1594807,37.9547186 34.061963,38.8116323 35.1616766,38.8116323 L35.3148415,38.80638 C36.4267684,38.7297815 37.2814371,37.8249286 37.2814371,36.7223265 L37.2814371,34.2727955 Z M28.7664671,27.6806754 C27.6667534,27.6806754 26.7642711,28.5375891 26.6878732,29.6209113 L26.6826347,29.7699812 L26.6826347,32.2195122 L30.8862275,32.2195122 L30.8862275,29.7699812 C30.8862275,28.6673791 30.0315588,27.7625262 28.9196319,27.6859277 L28.7664671,27.6806754 Z M35.1616766,27.6806754 C34.061963,27.6806754 33.1594807,28.5375891 33.0830828,29.6209113 L33.0778443,29.7699812 L33.0778443,32.2195122 L37.2814371,32.2195122 L37.2814371,29.7699812 C37.2814371,28.6673791 36.4267684,27.7625262 35.3148415,27.6859277 L35.1616766,27.6806754 Z" id="形状结合"></path>
        </g>
    </g>
</svg>