<?xml version="1.0" standalone="no"?><!DOCTYPE svg PUBLIC "-//W3C//DTD SVG 1.1//EN" "http://www.w3.org/Graphics/SVG/1.1/DTD/svg11.dtd"><svg t="1769485982821" class="icon" viewBox="0 0 1024 1024" version="1.1" xmlns="http://www.w3.org/2000/svg" p-id="25193" xmlns:xlink="http://www.w3.org/1999/xlink" width="200" height="200"><path d="M64 832.512a55.872 55.872 0 0 0-56 55.744c0 27.968 20.736 51.2 47.744 55.168L64 944h896c30.912 0 56-24.96 56-55.744 0-27.968-20.736-51.2-47.744-55.104l-8.256-0.64H64z m0-250.88a55.872 55.872 0 0 0-56 55.808c0 27.968 20.736 51.136 47.744 55.104l8.256 0.64h448c30.912 0 56-24.96 56-55.744 0-28.032-20.736-51.2-47.744-55.168L512 581.632H64zM825.28 343.04c-28.416-19.072-65.28 2.816-65.28 38.72v228.48c0 35.84 36.864 57.792 65.28 38.72l170.688-114.24c26.688-17.92 26.688-59.52 0-77.44zM64 330.88a55.872 55.872 0 0 0-56 55.68c0 28.032 20.736 51.2 47.744 55.168l8.256 0.64h448a55.808 55.808 0 1 0 8.32-110.848L512 330.816H64z m0-250.88a55.872 55.872 0 0 0-56 55.744c0 27.968 20.736 51.2 47.744 55.104l8.256 0.64h896c30.912 0 56-24.96 56-55.744 0-27.968-20.736-51.2-47.744-55.168L960 80H64z" fill="#cdcdcd" p-id="25194"></path></svg>