<?xml version="1.0" standalone="no"?><!DOCTYPE svg PUBLIC "-//W3C//DTD SVG 1.1//EN" "http://www.w3.org/Graphics/SVG/1.1/DTD/svg11.dtd"><svg t="1770185881955" class="icon" viewBox="0 0 1024 1024" version="1.1" xmlns="http://www.w3.org/2000/svg" p-id="10753" xmlns:xlink="http://www.w3.org/1999/xlink" width="200" height="200"><path d="M347.20507838 116.4921875c-19.77539063 0-32.95898463 13.183594-32.95898463 32.95898463v148.31542969c0 9.88769531-6.59179662 16.47949193-16.47949193 16.47949193H149.45117213c-19.77539063 0-32.95898463 13.183594-32.95898463 32.95898463s13.183594 32.95898463 32.95898463 32.95898387h148.31542969C343.90917969 380.16406225 380.16406225 343.90917969 380.16406225 297.76660182V149.45117213c0-19.77539063-13.183594-32.95898463-32.95898387-32.95898463zM726.23339818 380.16406225H874.54882787c19.77539063 0 32.95898463-13.183594 32.95898463-32.95898387s-13.183594-32.95898463-32.95898463-32.95898463h-148.31542969c-9.88769531 0-16.47949193-6.59179662-16.47949193-16.47949193V149.45117213c0-19.77539063-13.183594-32.95898463-32.95898463-32.95898463s-32.95898463 13.183594-32.95898387 32.95898463v148.31542969C643.83593775 343.90917969 680.09082031 380.16406225 726.23339818 380.16406225zM297.76660182 643.83593775H149.45117213c-19.77539063 0-32.95898463 13.183594-32.95898463 32.95898387s13.183594 32.95898463 32.95898463 32.95898463h148.31542969c9.88769531 0 16.47949193 6.59179662 16.47949193 16.47949193V874.54882787c0 19.77539063 13.183594 32.95898463 32.95898463 32.95898463s32.95898463-13.183594 32.95898387-32.95898463v-148.31542969C380.16406225 680.09082031 343.90917969 643.83593775 297.76660182 643.83593775zM874.54882787 643.83593775h-148.31542969c-46.14257787 0-82.39746119 36.25488256-82.39746043 82.39746043V874.54882787c0 19.77539063 13.183594 32.95898463 32.95898387 32.95898463s32.95898463-13.183594 32.95898463-32.95898463v-148.31542969c0-9.88769531 6.59179662-16.47949193 16.47949193-16.47949193H874.54882787c19.77539063 0 32.95898463-13.183594 32.95898463-32.95898463s-13.183594-32.95898463-32.95898463-32.95898387z" p-id="10754"></path></svg>