<?xml version="1.0" encoding="UTF-8"?>
<svg width="20px" height="20px" viewBox="0 0 20 20" version="1.1" xmlns="http://www.w3.org/2000/svg" xmlns:xlink="http://www.w3.org/1999/xlink">
    <title>SVG备份</title>
    <defs>
        <rect id="path-1" x="0" y="0" width="20" height="20"></rect>
    </defs>
    <g id="页面-1" stroke="none" stroke-width="1" fill="none" fill-rule="evenodd" opacity="0.600000024">
        <g id="药店结算" transform="translate(-10, -158)">
            <g id="NAV" transform="translate(0, 88)">
                <g id="LI" transform="translate(0, 56)">
                    <g id="SVG备份" transform="translate(10, 14)">
                        <mask id="mask-2" fill="white">
                            <use xlink:href="#path-1"></use>
                        </mask>
                        <g id="SVG" fill-rule="nonzero"></g>
                        <path d="M3,3 C1.89687502,3 1,3.89687502 1,5 L1,6 L19,6 L19,5 C19,3.89687502 18.1031246,3 17,3 L3,3 Z M19,9 L1,9 L1,15 C1,16.1031246 1.89687502,17 3,17 L17,17 C18.1031246,17 19,16.1031246 19,15 L19,9 Z M4.5,13 L6.5,13 C6.7750001,13 7,13.2250004 7,13.5 C7,13.7749996 6.7750001,14 6.5,14 L4.5,14 C4.2249999,14 4,13.7749996 4,13.5 C4,13.2250004 4.2249999,13 4.5,13 Z M8,13.5 C8,13.2250004 8.2249999,13 8.5,13 L12.5,13 C12.7749996,13 13,13.2250004 13,13.5 C13,13.7749996 12.7749996,14 12.5,14 L8.5,14 C8.2249999,14 8,13.7749996 8,13.5 Z" id="路径" fill="#FFFFFF" fill-rule="nonzero" mask="url(#mask-2)"></path>
                    </g>
                </g>
            </g>
        </g>
    </g>
</svg>