<?xml version="1.0" standalone="no"?><!DOCTYPE svg PUBLIC "-//W3C//DTD SVG 1.1//EN" "http://www.w3.org/Graphics/SVG/1.1/DTD/svg11.dtd"><svg t="1769571402936" class="icon" viewBox="0 0 1024 1024" version="1.1" xmlns="http://www.w3.org/2000/svg" p-id="37931" id="mx_n_1769571402936" xmlns:xlink="http://www.w3.org/1999/xlink" width="200" height="200"><path d="M149.973333 210.304a42.666667 42.666667 0 0 1 60.330667-60.330667l45.226667 45.226667A42.666667 42.666667 0 0 1 195.2 255.573333l-45.226667-45.269333zM768.426667 828.8a42.666667 42.666667 0 0 1 60.330666-60.373333l45.269334 45.269333a42.666667 42.666667 0 0 1-60.330667 60.330667l-45.226667-45.226667zM149.973333 813.653333a42.666667 42.666667 0 1 0 60.330667 60.330667l45.226667-45.226667a42.666667 42.666667 0 1 0-60.330667-60.373333l-45.226667 45.269333zM768.426667 255.573333a42.666667 42.666667 0 0 1 0-60.373333l45.226666-45.226667a42.666667 42.666667 0 1 1 60.373334 60.330667l-45.226667 45.226667a42.666667 42.666667 0 0 1-60.373333 0zM469.333333 42.666667a42.666667 42.666667 0 1 1 85.333334 0v64a42.666667 42.666667 0 1 1-85.333334 0V42.666667z m0 874.666666a42.666667 42.666667 0 1 1 85.333334 0V981.333333a42.666667 42.666667 0 1 1-85.333334 0v-64zM42.666667 469.333333a42.666667 42.666667 0 1 0 0 85.333334h64a42.666667 42.666667 0 1 0 0-85.333334H42.666667z m832 42.666667a42.666667 42.666667 0 0 1 42.666666-42.666667H981.333333a42.666667 42.666667 0 1 1 0 85.333334h-64a42.666667 42.666667 0 0 1-42.666666-42.666667zM768 512a256 256 0 1 0-512 0 256 256 0 0 0 512 0z" p-id="37932"></path></svg>