<?xml version="1.0" standalone="no"?><!DOCTYPE svg PUBLIC "-//W3C//DTD SVG 1.1//EN" "http://www.w3.org/Graphics/SVG/1.1/DTD/svg11.dtd"><svg t="1769500672013" class="icon" viewBox="0 0 1024 1024" version="1.1" xmlns="http://www.w3.org/2000/svg" p-id="1616" xmlns:xlink="http://www.w3.org/1999/xlink" width="200" height="200"><path d="M736 576A160 160 0 0 1 896 736V896a32 32 0 0 1-32 32H160A32 32 0 0 1 128 896v-160a160 160 0 0 1 160-160z m0 64H288a96 96 0 0 0-96 96v128h640v-128a96 96 0 0 0-92.416-95.914667L736 640zM512 80a224 224 0 1 1 0 448 224 224 0 0 1 0-448z m0 64a160 160 0 1 0 0 320 160 160 0 0 0 0-320z" p-id="1617"></path></svg>