<?xml version="1.0" encoding="UTF-8"?>
<svg width="20px" height="20px" viewBox="0 0 20 20" version="1.1" xmlns="http://www.w3.org/2000/svg" xmlns:xlink="http://www.w3.org/1999/xlink">
    <title>监控</title>
    <g id="页面-1" stroke="none" stroke-width="1" fill="none" fill-rule="evenodd" opacity="0.600000024">
        <g id="药店结算" transform="translate(-40, -214)" fill="#FFFFFF" fill-rule="nonzero">
            <g id="NAV" transform="translate(0, 88)">
                <g id="LI" transform="translate(24, 112)">
                    <g id="监控" transform="translate(16, 14)">
                        <rect id="矩形" opacity="0" x="0" y="0" width="20" height="20"></rect>
                        <path d="M2.13285156,12.8571484 L2.13285156,10.0757031 L0,9.74287109 L0,20 L2.13427734,19.2714258 L2.13427734,14.78 L5.53427734,14.78 L7,12.5285742 L5.13285156,11.4 L4.26714844,12.9242773 L2.13285156,12.9242773 L2.13285156,12.8585742 L2.13285156,12.8571484 Z M20,10.0757031 L4.73285156,0 L3,0 L0.6,3.77714844 L0.6,5.03714844 L14.2671484,13.9185547 L15.4,13.7857031 L20,10.0742773 L20,10.0757031 Z M0.6,5.83144531 L0.6,7.82001953 L14.4,16.5700195 L15.6671484,16.5700195 L16.2671484,15.9057422 L16.8671484,13.9842969 C15.7109505,14.8233594 15.0885677,15.2428906 15,15.2428906 C14.6,14.9333594 9.8,11.7966862 0.6,5.83287109 L0.6,5.83144531 Z" id="形状"></path>
                    </g>
                </g>
            </g>
        </g>
    </g>
</svg>