<?xml version="1.0" standalone="no"?><!DOCTYPE svg PUBLIC "-//W3C//DTD SVG 1.1//EN" "http://www.w3.org/Graphics/SVG/1.1/DTD/svg11.dtd"><svg t="1770692304328" class="icon" viewBox="0 0 1024 1024" version="1.1" xmlns="http://www.w3.org/2000/svg" p-id="2087" xmlns:xlink="http://www.w3.org/1999/xlink" width="200" height="200"><path d="M825.105067 765.883733l184.593066 185.6512a39.936 39.936 0 0 1 0 60.040534c-16.2816 16.384-43.4176 16.384-59.733333 0l-186.402133-183.773867a449.194667 449.194667 0 0 1-119.432534 72.8064c-54.306133 23.586133-115.848533 34.5088-177.390933 34.5088-63.317333 0-123.050667-12.765867-179.165867-34.5088-56.081067-23.688533-108.578133-58.231467-150.2208-101.922133a460.117333 460.117333 0 0 1-101.341866-152.8832l-1.8432-1.7408a480.529067 480.529067 0 0 1-34.338134-176.503467c0-63.658667 12.6976-123.6992 34.338134-178.2784A460.868267 460.868267 0 0 1 135.509333 136.465067C218.794667 50.961067 336.418133 0.034133 464.964267 0.034133c61.508267 0 123.050667 12.6976 177.3568 36.386134a477.047467 477.047467 0 0 1 152.029866 101.853866l1.809067 1.809067a469.6064 469.6064 0 0 1 99.5328 149.1968v1.809067a478.173867 478.173867 0 0 1 34.372267 176.469333 447.829333 447.829333 0 0 1-36.2496 178.312533c-16.145067 43.690667-39.697067 85.504-68.7104 120.0128z m-213.572267-651.264c-45.192533-18.158933-94.0032-29.0816-144.759467-29.0816-104.994133 0-200.942933 41.847467-269.7216 110.933334-34.338133 34.577067-63.2832 78.267733-83.182933 123.733333-18.158933 45.533867-29.013333 94.6176-29.013333 145.476267 0 50.9952 9.079467 100.1472 27.204266 145.544533v1.877333c19.8656 45.533867 47.0016 89.088 83.2512 123.733334a389.393067 389.393067 0 0 0 123.050667 83.6608 379.562667 379.562667 0 0 0 144.759467 29.184c50.688 0 101.376-10.888533 144.759466-29.184 45.226667-20.036267 88.746667-47.274667 123.118934-81.885867 34.338133-34.577067 63.317333-78.2336 83.182933-123.733333 18.1248-43.6224 29.013333-94.549333 29.013333-145.544534 0-50.926933-10.8544-100.010667-27.136-143.701333l-1.877333-1.8432c-19.8656-45.431467-45.192533-87.313067-79.5648-121.890133l-1.809067-1.809067c-32.529067-38.1952-74.24-65.536-121.275733-85.469867zM265.557333 643.4816c10.24 10.308267 8.977067 26.999467 0 35.976533-10.24 10.376533-26.862933 9.0112-35.84 0-28.16-28.228267-51.2-61.7472-65.2288-98.986666a292.6592 292.6592 0 0 1-23.04-115.8144c0-41.1648 7.68-79.803733 23.04-115.780267 14.0288-37.307733 37.0688-70.7584 65.2288-99.054933a24.644267 24.644267 0 0 1 35.84 0c10.24 10.308267 10.24 25.736533 0 35.976533-23.04 23.210667-40.96 51.5072-55.022933 81.066667a294.126933 294.126933 0 0 0-19.182933 96.494933c0 33.450667 6.382933 65.604267 17.885866 95.197867v2.56c15.36 30.856533 33.28 59.118933 56.32 82.363733z" p-id="2088"></path></svg>